# xmcd
#
# Track frame offsets:
#	150
#	13632
#	27586
#	42788
#	57255
#	76730
#	93605
#	114124
#	129306
#	148938
#	166140
#	177659
#	194275
#	210952
#	227974
#	242478
#	258115
#	274443
#	288007
#	305239
#
# Disc length: 4340 seconds
#
# Revision: 1
# Processed by: cddbd v1.5.2PL0 Copyright (c) Steve Scherf et al.
# Submitted via: audiograbber 1.83.01
#
DISCID=1510f214
DTITLE=Various Artist - Promo Only Country Radio 2011 - 09
DYEAR=2011
DGENRE=Country
TTITLE0=George Strait - Here for A Good Time
TTITLE1=Brett Eldredge - It Ain't Gotta Be Love
TTITLE2=Montgomery Gentry - Where I Come from
TTITLE3=Sawyer Brown - Smokin' Hot Wife
TTITLE4=Robin Meade - Dirty Laundry
TTITLE5=Danny Gokey - Second Hand Heart
TTITLE6=Keith Urban - Long Hot Summer (Venti Mix)
TTITLE7=Craig Morgan - This Ole Boy
TTITLE8=Taylor Swift - Sparks Fly
TTITLE9=Blake Shelton - God Gave M} You
TTITLE10=Tyler Farr - That's What They're Bitin' on
TTITLE11=Alan Jackson - Long Way to Go
TTITLE12=Billy Ray Cyrus - Runway Lights
TTITLE13=Martina McBride - I'm Gonna Love You Through it
TTITLE14=Ashton Sheperd - Where Country Grows
TTITLE15=Steel Magnolia - Without You
TTITLE16=Jeff Bridges - What A Little Bit of Love Can Do
TTITLE17=Johnny Patton - Save the Jukebox
TTITLE18=David Adam Bynes - She Only Wanted Flowers
TTITLE19=Jim Quick - Down South
EXTD=
EXTT0=
EXTT1=
EXTT2=
EXTT3=
EXTT4=
EXTT5=
EXTT6=
EXTT7=
EXTT8=
EXTT9=
EXTT10=
EXTT11=
EXTT12=
EXTT13=
EXTT14=
EXTT15=
EXTT16=
EXTT17=
EXTT18=
EXTT19=
PLAYORDER=
